# xmcd CD database file
#
# Track frame offsets:
#	150
#	18133
#	37379
#	60979
#	87337
#	111874
#	129498
#	145213
#	157523
#	171479
#	202367
#
# Disc length: 2774 seconds
#
# Revision: 0
# Processed by: cddbd v1.5.1PL0 Copyright (c) Steve Scherf et al.
# Submitted via: CDex 1.51
#
DISCID=960ad40b
DTITLE=Haens´che Weiss-Vali Mayer - ...just play!
DYEAR=2003
DGENRE=Jazz
TTITLE0=Melange
TTITLE1=Blackbird
TTITLE2=Pupa
TTITLE3=Manoir-Daphne
TTITLE4=Laura
TTITLE5=Valse Oubliee
TTITLE6=Ou es tu...?
TTITLE7=Gloomy Sunday
TTITLE8=Gerra
TTITLE9=Kale Yaka
TTITLE10=Zürich-Berlin
EXTD=YEAR: 2003
EXTT0=
EXTT1=
EXTT2=
EXTT3=
EXTT4=
EXTT5=
EXTT6=
EXTT7=
EXTT8=
EXTT9=
EXTT10=
PLAYORDER=
